<svg xmlns="http://www.w3.org/2000/svg" width="20" height="20" viewBox="0 0 20 20" fill="none">
	<path fill-rule="evenodd" clip-rule="evenodd" d="M3.73301 1.3335H3.66634C3.36101 1.3335 3.09834 1.3335 2.86634 1.38816C2.50719 1.47398 2.17881 1.65756 1.91758 1.91855C1.65636 2.17954 1.47248 2.50776 1.38634 2.86683C1.33301 3.09883 1.33301 3.36016 1.33301 3.66683V7.00016C1.33301 7.3055 1.33301 7.56816 1.38767 7.80016C1.47349 8.15931 1.65707 8.4877 1.91806 8.74892C2.17905 9.01015 2.50727 9.19402 2.86634 9.28016C3.09834 9.3335 3.35967 9.3335 3.66634 9.3335H6.99967C7.30501 9.3335 7.56767 9.3335 7.79967 9.27883C8.15883 9.19301 8.48721 9.00943 8.74843 8.74844C9.00966 8.48745 9.19353 8.15924 9.27967 7.80016C9.33301 7.56816 9.33301 7.30683 9.33301 7.00016V3.66683C9.33301 3.3615 9.33301 3.09883 9.27834 2.86683C9.19252 2.50768 9.00895 2.1793 8.74795 1.91807C8.48696 1.65684 8.15875 1.47297 7.79967 1.38683C7.56767 1.3335 7.30634 1.3335 6.99967 1.3335H3.73301ZM3.17701 2.6855C3.23434 2.67216 3.32367 2.66683 3.73301 2.66683H6.93301C7.34367 2.66683 7.43167 2.67083 7.48901 2.6855C7.60878 2.71414 7.71828 2.7754 7.80536 2.86248C7.89244 2.94956 7.9537 3.05906 7.98234 3.17883C7.99567 3.23483 7.99967 3.32283 7.99967 3.7335V6.9335C7.99967 7.34416 7.99567 7.43216 7.98101 7.4895C7.95237 7.60927 7.89111 7.71877 7.80403 7.80585C7.71695 7.89293 7.60745 7.95419 7.48767 7.98283C7.43301 7.99483 7.34501 8.00016 6.93301 8.00016H3.73301C3.32234 8.00016 3.23434 7.99616 3.17701 7.9815C3.05723 7.95285 2.94774 7.8916 2.86066 7.80452C2.77357 7.71743 2.71232 7.60794 2.68367 7.48816C2.67167 7.4335 2.66634 7.3455 2.66634 6.9335V3.7335C2.66634 3.32283 2.67034 3.23483 2.68501 3.1775C2.71365 3.05772 2.77491 2.94822 2.86199 2.86114C2.94907 2.77406 3.05857 2.7128 3.17834 2.68416L3.17701 2.6855ZM13.0663 1.3335H12.9997C12.6943 1.3335 12.4317 1.3335 12.1997 1.38816C11.8405 1.47398 11.5121 1.65756 11.2509 1.91855C10.9897 2.17954 10.8058 2.50776 10.7197 2.86683C10.6663 3.09883 10.6663 3.36016 10.6663 3.66683V7.00016C10.6663 7.3055 10.6663 7.56816 10.721 7.80016C10.8068 8.15931 10.9904 8.4877 11.2514 8.74892C11.5124 9.01015 11.8406 9.19402 12.1997 9.28016C12.4317 9.3335 12.693 9.3335 12.9997 9.3335H16.333C16.6383 9.3335 16.901 9.3335 17.133 9.27883C17.4922 9.19301 17.8205 9.00943 18.0818 8.74844C18.343 8.48745 18.5269 8.15924 18.613 7.80016C18.6663 7.56816 18.6663 7.30683 18.6663 7.00016V3.66683C18.6663 3.3615 18.6663 3.09883 18.6117 2.86683C18.5259 2.50768 18.3423 2.1793 18.0813 1.91807C17.8203 1.65684 17.4921 1.47297 17.133 1.38683C16.901 1.3335 16.6397 1.3335 16.333 1.3335H13.0663ZM12.5103 2.6855C12.5677 2.67216 12.657 2.66683 13.0663 2.66683H16.2663C16.677 2.66683 16.765 2.67083 16.8223 2.6855C16.9421 2.71414 17.0516 2.7754 17.1387 2.86248C17.2258 2.94956 17.287 3.05906 17.3157 3.17883C17.329 3.23483 17.333 3.32283 17.333 3.7335V6.9335C17.333 7.34416 17.3277 7.43216 17.3143 7.4895C17.2857 7.60927 17.2244 7.71877 17.1374 7.80585C17.0503 7.89293 16.9408 7.95419 16.821 7.98283C16.765 7.99616 16.677 8.00016 16.2663 8.00016H13.0663C12.6557 8.00016 12.5677 7.99616 12.5103 7.9815C12.3906 7.95285 12.2811 7.8916 12.194 7.80452C12.1069 7.71743 12.0456 7.60794 12.017 7.48816C12.005 7.4335 11.9997 7.3455 11.9997 6.9335V3.7335C11.9997 3.32283 12.0037 3.23483 12.0183 3.1775C12.047 3.05772 12.1082 2.94822 12.1953 2.86114C12.2824 2.77406 12.3919 2.7128 12.5117 2.68416L12.5103 2.6855ZM3.66634 10.6668H6.99967C7.30501 10.6668 7.56767 10.6668 7.79967 10.7215C8.15883 10.8073 8.48721 10.9909 8.74843 11.2519C9.00966 11.5129 9.19353 11.8411 9.27967 12.2002C9.33301 12.4322 9.33301 12.6935 9.33301 13.0002V16.3335C9.33301 16.6388 9.33301 16.9015 9.27834 17.1335C9.19252 17.4926 9.00895 17.821 8.74795 18.0823C8.48696 18.3435 8.15875 18.5274 7.79967 18.6135C7.56767 18.6668 7.30634 18.6668 6.99967 18.6668H3.66634C3.36101 18.6668 3.09834 18.6668 2.86634 18.6122C2.50719 18.5263 2.17881 18.3428 1.91758 18.0818C1.65636 17.8208 1.47248 17.4926 1.38634 17.1335C1.33301 16.9015 1.33301 16.6402 1.33301 16.3335V13.0002C1.33301 12.6948 1.33301 12.4322 1.38767 12.2002C1.47349 11.841 1.65707 11.5126 1.91806 11.2514C2.17905 10.9902 2.50727 10.8063 2.86634 10.7202C3.09834 10.6668 3.35967 10.6668 3.66634 10.6668ZM3.73301 12.0002C3.32234 12.0002 3.23434 12.0042 3.17701 12.0188C3.05723 12.0475 2.94774 12.1087 2.86066 12.1958C2.77357 12.2829 2.71232 12.3924 2.68367 12.5122C2.67167 12.5668 2.66634 12.6548 2.66634 13.0668V16.2668C2.66634 16.6775 2.67034 16.7655 2.68501 16.8228C2.71365 16.9426 2.77491 17.0521 2.86199 17.1392C2.94907 17.2263 3.05857 17.2875 3.17834 17.3162C3.23434 17.3295 3.32234 17.3335 3.73301 17.3335H6.93301C7.34367 17.3335 7.43167 17.3282 7.48901 17.3148C7.60878 17.2862 7.71828 17.2249 7.80536 17.1378C7.89244 17.0508 7.9537 16.9413 7.98234 16.8215C7.99567 16.7655 7.99967 16.6775 7.99967 16.2668V13.0668C7.99967 12.6562 7.99567 12.5682 7.98101 12.5108C7.95237 12.3911 7.89111 12.2816 7.80403 12.1945C7.71695 12.1074 7.60745 12.0461 7.48767 12.0175C7.43301 12.0055 7.34501 12.0002 6.93301 12.0002H3.73301ZM13.0663 10.6668H12.9997C12.6943 10.6668 12.4317 10.6668 12.1997 10.7215C11.8405 10.8073 11.5121 10.9909 11.2509 11.2519C10.9897 11.5129 10.8058 11.8411 10.7197 12.2002C10.6663 12.4322 10.6663 12.6935 10.6663 13.0002V16.3335C10.6663 16.6388 10.6663 16.9015 10.721 17.1335C10.8068 17.4926 10.9904 17.821 11.2514 18.0823C11.5124 18.3435 11.8406 18.5274 12.1997 18.6135C12.4317 18.6682 12.6943 18.6682 12.9997 18.6682H16.333C16.6383 18.6682 16.901 18.6682 17.133 18.6135C17.4919 18.5275 17.82 18.3438 18.081 18.0828C18.342 17.8218 18.5256 17.4937 18.6117 17.1348C18.6663 16.9028 18.6663 16.6402 18.6663 16.3348V13.0002C18.6663 12.6948 18.6663 12.4322 18.6117 12.2002C18.5259 11.841 18.3423 11.5126 18.0813 11.2514C17.8203 10.9902 17.4921 10.8063 17.133 10.7202C16.901 10.6668 16.6397 10.6668 16.333 10.6668H13.0663ZM12.5103 12.0188C12.5677 12.0055 12.657 12.0002 13.0663 12.0002H16.2663C16.677 12.0002 16.765 12.0042 16.8223 12.0188C16.9421 12.0475 17.0516 12.1087 17.1387 12.1958C17.2258 12.2829 17.287 12.3924 17.3157 12.5122C17.329 12.5682 17.333 12.6562 17.333 13.0668V16.2668C17.333 16.6775 17.3277 16.7655 17.3143 16.8228C17.2857 16.9426 17.2244 17.0521 17.1374 17.1392C17.0503 17.2263 16.9408 17.2875 16.821 17.3162C16.765 17.3295 16.677 17.3335 16.2663 17.3335H13.0663C12.6557 17.3335 12.5677 17.3282 12.5103 17.3148C12.3906 17.2862 12.2811 17.2249 12.194 17.1378C12.1069 17.0508 12.0456 16.9413 12.017 16.8215C12.005 16.7668 11.9997 16.6788 11.9997 16.2668V13.0668C11.9997 12.6562 12.0037 12.5682 12.0183 12.5108C12.047 12.3911 12.1082 12.2816 12.1953 12.1945C12.2824 12.1074 12.3919 12.0461 12.5117 12.0175L12.5103 12.0188Z" fill="#1D4A7B" />
</svg>
